<svg width="256" height="256" xmlns="http://www.w3.org/2000/svg" xmlns:xlink="http://www.w3.org/1999/xlink" viewBox="0 0 132.72 127.219">
  <g><!--Firefox-->
    <g><!--Globe-->
      <ellipse fill="#110070" cx="63.755" cy="59.375" rx="59.336" ry="59.375" />
      <radialGradient id="firefox-logo-61" cx="64.5688" cy="7.2266" r="104.221" fx="64.5688" fy="7.2266" gradientUnits="userSpaceOnUse">
        <stop offset="0" style="stop-color:#67C5D5" />
        <stop offset="0.5759" style="stop-color:#4874AA" />
        <stop offset="0.7485" style="stop-color:#2A2781" />
        <stop offset="0.8146" style="stop-color:#1B006D" />
        <stop offset="1" style="stop-color:#596AAD" />
      </radialGradient>
      <ellipse fill="url(#firefox-logo-61)" cx="63.755" cy="59.375" rx="58.215" ry="58.254" />
      <g>
        <linearGradient id="firefox-logo-70" gradientUnits="userSpaceOnUse" x1="38" y1="19" x2="29" y2="33">
          <stop offset="0" style="stop-color:#0F80BC" />
          <stop offset="0.3" style="stop-color:#0A5F9E" />
          <stop offset="1" style="stop-color:#00145A" />
        </linearGradient>
        <path fill="url(#firefox-logo-70)" d="M38.752,6.095 c-10.573,4.747-18.551,14.531-18.551,14.531s0.938,2.145,1.265,1.987c0.33-0.156-2.361,5.628-0.386,5.954 c1.985,0.325,7.696-3.578,6.637-3.22c-1.056,0.356,0.595-2.112,0.595-2.112s2.972-1.318,1.214,0.202 c-1.743,1.511,2.318,0.187,2.255,0.496c-0.064,0.311,0.525,1.147,0.525,1.147s-1.393,1.494,0.406,0.892 c6.172-2.075,0.812,1.779,0.812,1.779l0.106,1.312l2.67,0.464l1.578-0.15c0,0,1.381-2.436,1.914-3.098 c0.535-0.663,1.028-3.284,1.028-3.284s0.803-0.084-0.213-0.468c-1.016-0.385,0.972-1.583,1.886-1.434l4.303-1.336 c0.138,0.068,0.292,0.103,0.47,0.082c0.985-0.114,0.489,1.603,1.294,2.25c0.796,0.644,2.627,1.264,3.283,0.469 c-0.784-0.594,0.674-2.011,0.86-0.751c0.187,1.249,0.767,0.723,0.767,0.723s1.543-2.654,2.036-4.177 c0.27,0.377,2.788-3.309,2.025-5.067c-0.771-1.78,0.479-3.456,0.34-3.715c-0.143-0.256-0.896,0.528-0.34,0.34 c0.561-0.192-1.589,0.772-1.874-2.061c-0.288-2.89-0.707,0.243-0.985,1.169c0.377,1.508,4.29-6.093,4.29-6.093l5.044-2.057 C64.006,0.873,52.525-0.088,38.752,6.095z" />
      </g>
      <linearGradient id="firefox-logo-71" gradientUnits="userSpaceOnUse" x1="62.6519" y1="34.5464" x2="62.6519" y2="11.8951">
        <stop offset="0" style="stop-color:#000000" stop-opacity="0" />
        <stop offset="0.6" style="stop-color:#C4E0E3" stop-opacity="0.2" />
        <stop offset="0.8" style="stop-color:#C4E0E3" />
        <stop offset="0.85" style="stop-color:#CDE5E8" />
        <stop offset="0.9" style="stop-color:#E8F4F7" />
        <stop offset="1" style="stop-color:#F2FAFC" />
      </linearGradient>
      <ellipse opacity="0.5" fill="url(#firefox-logo-71)" cx="62.652" cy="23.271" rx="30.825" ry="19.971" />
    </g>
    <filter id="blurshadow" x="-25%" y="-25%" width="150%" height="150%">
      <feGaussianBlur in="SourceAlpha" stdDeviation="1.5" result="blur" />
      <feOffset dx="1" dy="1" in="blur" result="shift" />
      <feMerge>
        <feMergeNode in="shift" />
        <feMergeNode in="SourceGraphic" />
      </feMerge>
    </filter>
    <g filter="url(#blurshadow)"><!--Fox-->
      <g>
        <linearGradient id="firefox-logo-74" gradientUnits="userSpaceOnUse" x1="64.4775" y1="56.3008" x2="78.4661" y2="48.0854">
          <stop offset="0" style="stop-color:#DF731B" />
          <stop offset="0.5449" style="stop-color:#DF731B" />
          <stop offset="0.7014" style="stop-color:#EC8811" />
          <stop offset="0.8593" style="stop-color:#F4950B" />
          <stop offset="1" style="stop-color:#F79A09" />
        </linearGradient>
        <path fill="url(#firefox-logo-74)" d="M125.321,43.084l-1.426,9.15c0,0-2.039-16.94-4.538-23.273 c-3.83-9.704-5.534-9.626-5.545-9.612c2.565,6.519,2.1,10.021,2.1,10.021s-4.545-12.387-16.562-16.328 c-14.232-4.665-21.482-2.979-21.428-2.914c0.054,0.066,14.709,2.562,17.308,6.133c0,0-6.225,0-12.42,1.785 c-0.28,0.08,22.793,2.882,27.51,25.938c0,0-2.529-5.277-5.657-6.173c2.057,6.258,1.529,18.133-0.43,24.035 c-0.252,0.759-0.51-3.281-4.369-5.021c1.236,8.857-0.074,22.905-6.219,26.775c-0.479,0.301,3.852-13.868,0.871-8.39 c-17.797,27.287-38.956,11.04-47.538,5.249c6.888,1.688,14.205,0.472,18.441-2.423c4.275-2.922,6.804-5.058,9.075-4.553 c2.27,0.507,3.781-1.771,2.018-3.792c-1.765-2.025-6.051-4.808-11.849-3.291c-4.089,1.071-9.156,5.595-16.891,1.014 c-6.599-3.91-6.554-7.085-6.554-9.108c0-2.024,1.8-5.1,5.076-4.595c2.934,0.453,1.388-1.27,4.545,0 c0.86,0.346-0.086-4.129-1.31-6.996c2.357-4.919,10.004-6.381,10.575-6.812c1.034-0.782,0.465-1.172,0.818-2.35 c0.33-1.097,0.541-4.062-8.017-3.243c-3.938,0.377-6.443-4.726-7.264-5.965c0.266-1.577,0.693-3.018,1.271-4.338 c0.587-1.203,1.228-2.305,1.868-3.139c0.2-0.261,0.374-0.49,0.532-0.703c1.276-1.488,2.842-2.76,4.722-3.818 c0.981-0.554-10.969-0.035-16.346,6.974c-1.443,0.188-3.423-0.228-5.636-0.228c-2.774,0-4.953,0.303-6.97,0.81 c-0.323,0.081-0.844,0.037-1.481-0.115c-1.775-1.839-6.797-6.259-7.027-12.254c0,0-7.302,5.612-6.209,20.912 c-0.096,8.461-2.594,6.042-3.879,10.634c-0.598,2.176,0.899,3.815,0.899,3.879c-0.002,0.033,1.796-1.946,1.796-1.946 s-11.323,19.617,3.3,44.66c12.604,21.589,33.755,31.13,55.703,29.272c3.839-0.25,7.706-0.822,11.564-1.754 C130.881,104.828,125.321,43.084,125.321,43.084z" />
      </g>
      <linearGradient id="firefox-logo-75" gradientUnits="userSpaceOnUse" x1="41.8389" y1="36.9619" x2="52.6969" y2="37.8922">
        <stop offset="0.0112" style="stop-color:#941403" />
        <stop offset="0.8972" style="stop-color:#E85C0A" />
      </linearGradient>
      <path fill="url(#firefox-logo-75)" d="M45.469,27.61c0,0,2.21,6.039,7.167,6.019 c9.457-0.038,9.646,0.093,9.707,1.243c0.188,3.5-1.54,4.647-2.201,5.145c-0.663,0.497-9.668,5.718-9.999,7.211 C49.812,48.72,39.752,33.03,39.752,33.03L45.469,27.61z" />
      <linearGradient id="firefox-logo-77" gradientUnits="userSpaceOnUse" x1="48.731" y1="44.3203" x2="51.8565" y2="42.9451">
        <stop offset="0" style="stop-color:#F2C8A9" />
        <stop offset="1" style="stop-color:#FFFFCC" />
      </linearGradient>
      <path fill="url(#firefox-logo-77)" d="M60.143,40.017c0.502-0.378,1.616-1.137,2.042-3.011 c-0.311,0.126-0.34-0.23-0.707-0.076c-6.955,7.255-7.221,2.203-11.017,3.22c-3.46,0.947-4.237,2.246-4.383,2.347 c0.051,0.073,0.104,0.148,0.155,0.221c0.997,0.506,1.953,2.122,2.671,3.564c0.702,0.836,1.173,1.248,1.241,0.945 C50.475,45.734,59.48,40.513,60.143,40.017z" />
      <linearGradient id="firefox-logo-78" gradientUnits="userSpaceOnUse" x1="38.7676" y1="82.5825" x2="91.3391" y2="84.7472">
        <stop offset="0" style="stop-color:#B30000" />
        <stop offset="1" style="stop-color:#DF731B" />
      </linearGradient>
      <path fill="url(#firefox-logo-78)" d="M8.18,45.782C6.76,48.761-2.352,64.159,12.519,89.787 c14.552,25.084,39.737,33.276,65.45,27.71c7.34-1.588,15.803-7.331,21.196-11.545c-3.465-8.74-1.414-8.412-3.271-7.262 c-20.714,12.823-37.18,0.174-49.924-1.443C-0.913,91.305,8.345,45.689,8.345,45.689L8.18,45.782z" />
      <linearGradient id="firefox-logo-79" gradientUnits="userSpaceOnUse" x1="51.2778" y1="74.4243" x2="78.6891" y2="84.2116">
        <stop offset="0" style="stop-color:#941403" />
        <stop offset="1" style="stop-color:#DF731B" />
      </linearGradient>
      <path fill="url(#firefox-logo-79)" d="M47.219,80.933c4.419,1.325,14.06,0.183,18.201-2.897 c2.79-2.074,4.898-3.638,6.671-4.292c-3.134-2.129-3.184,0.889-9.774,2.415c-13.728,3.185-20.393-3.695-20.393-3.695 c0.972,5.444,4.372,8.095,5.902,9.036C47.42,81.14,47.207,80.929,47.219,80.933z" />
      <linearGradient id="firefox-logo-80" gradientUnits="userSpaceOnUse" x1="6.1064" y1="87.0566" x2="32.8281" y2="87.0566" gradientTransform="matrix(0.9988 0.049 -0.049 0.9988 4.7153 -1.2399)">
        <stop offset="0.0562" style="stop-color:#B30000" />
        <stop offset="1" style="stop-color:#DE5C01" />
      </linearGradient>
      <path fill="url(#firefox-logo-80)" d="M32.332,105.794c0,0-11.428-12.896-14.618-27.338 c-4.704-4.443-8.042-8.2-10.259-10.917C8.735,77.816,13.975,93.771,32.332,105.794z" />
      <linearGradient id="firefox-logo-81" gradientUnits="userSpaceOnUse" x1="209.7227" y1="-130.6592" x2="224.2611" y2="-85.6186" gradientTransform="matrix(0.9929 0.1186 -0.1186 0.9929 -207.2682 181.2932)">
        <stop offset="0.0562" style="stop-color:#DE7210" />
        <stop offset="1" style="stop-color:#F6C08F" />
      </linearGradient>
      <path fill="url(#firefox-logo-81)" d="M22.799,94.082c0,0-7.887-11.228-4.93-20.762 c2.66-8.571-0.565-3.472-2.441-1.64c-1.895,1.851-2.869-5.464-2.821-6.307c0.003-0.018,0.001-0.026-0.001-0.027 C12.487,65.321,8.852,82.872,22.799,94.082z" />
      <linearGradient id="firefox-logo-82" gradientUnits="userSpaceOnUse" x1="12.4712" y1="61.1074" x2="12.4712" y2="111.4548" gradientTransform="matrix(0.999 0.0448 -0.0448 0.999 3.2321 -0.6968)">
        <stop offset="0.0562" style="stop-color:#DE7210" />
        <stop offset="1" style="stop-color:#F6C08F" />
      </linearGradient>
      <path fill="url(#firefox-logo-82)" d="M11.115,84.294c0,0-1.798-22.788,3.885-26.009 c9.025-5.115,0.753-3.919-1.864-2.499c-2.645,1.433-2.4-8-2.026-8.896C11.477,46.007,1.795,55.808,11.115,84.294z" />
      <path fill="#A40000" d="M50.601,17.239c0,0-7.145,7.257-7.092,7.282c0.054,0.026,0.205,9.315,0.438,11.948 c0.856,1.011,3.524,7.588,1.482,6.128c-2.086-1.49-0.582-1.522-0.4-0.765c0.005,0.025,0.005,0.037,0,0.037 C44.891,41.933,39.844,30.946,50.601,17.239z" />
      <linearGradient id="firefox-logo-83" gradientUnits="userSpaceOnUse" x1="18.3477" y1="30.8462" x2="12.8857" y2="16.8496">
        <stop offset="0.0112" style="stop-color:#941403" />
        <stop offset="0.4719" style="stop-color:#E85C0A" />
        <stop offset="1" style="stop-color:#F9BD5F" />
      </linearGradient>
      <path fill="url(#firefox-logo-83)" d="M16.613,11.647c0,0-7.594,5.825-6.143,21.805 c5.878-5.277,14.19-9.222,14.19-9.222C23.265,23.352,16.866,18.233,16.613,11.647z" />
      <linearGradient id="firefox-logo-84" gradientUnits="userSpaceOnUse" x1="41.7036" y1="34.0576" x2="54.7924" y2="16.8533">
        <stop offset="0.1966" style="stop-color:#DE7210" />
        <stop offset="0.8427" style="stop-color:#F9BD5F" />
        <stop offset="1" style="stop-color:#FFFCCF" />
      </linearGradient>
      <path fill="url(#firefox-logo-84)" d="M35.328,29.122l11.406,14.185c-3.291-13.93-0.761-22.288,7.34-26.847 C55.273,15.784,37.149,16.703,35.328,29.122z" />
      <linearGradient id="firefox-logo-85" gradientUnits="userSpaceOnUse" x1="34.7837" y1="57.5415" x2="48.0524" y2="84.0789">
        <stop offset="0.0169" style="stop-color:#941403" />
        <stop offset="1" style="stop-color:#DF731B" />
      </linearGradient>
      <path fill="url(#firefox-logo-85)" d="M27.292,64.164C29.237,51.908,46.294,53.71,46.294,53.71 c-0.761,0.565-3.683,0.903-4.52,3.241c-2.762,7.719-0.128,24.581,17.078,31.653C60.667,89.352,24.418,82.276,27.292,64.164z" />
      <linearGradient id="firefox-logo-86" gradientUnits="userSpaceOnUse" x1="54.8252" y1="41.2671" x2="58.1387" y2="44.27">
        <stop offset="0" style="stop-color:#EEA272" />
        <stop offset="1" style="stop-color:#FFFFCC" />
      </linearGradient>
      <path fill="url(#firefox-logo-86)" d="M62.087,37.338c-0.084-0.015-0.158-0.013-0.195,0.037 c-0.21,0.281-1.021,1.239-2.95,2.81c-3.583,2.915-5.093,2.177-7.762,2.774c-1.215,0.271-2.37,1.087-3.148,1.741 c0.315,0.509,0.609,1.057,0.871,1.582c0.702,0.836,1.173,1.248,1.241,0.945c0.331-1.493,9.336-6.714,9.999-7.211 C60.613,39.663,61.611,38.962,62.087,37.338z" />
      <linearGradient id="firefox-logo-87" gradientUnits="userSpaceOnUse" x1="35.5" y1="48.3613" x2="50.7214" y2="63.8933">
        <stop offset="0.1966" style="stop-color:#DF731B" />
        <stop offset="0.8427" style="stop-color:#F9BD5F" />
        <stop offset="1" style="stop-color:#FFFCCF" />
      </linearGradient>
      <path fill="url(#firefox-logo-87)" d="M51.09,55.865c0.1-2.59-0.081-8.881-2.774-11.611 c-2.057-2.085-2.54-4.474-2.816-7.201c-22.363,8.353-25.556,19.272-23.32,18.917C40.066,53.135,45.094,52.788,51.09,55.865z" />
      <linearGradient id="firefox-logo-88" gradientUnits="userSpaceOnUse" x1="847.4707" y1="-1065.021" x2="847.4707" y2="-1007.9581" gradientTransform="matrix(0.9673 0.2537 -0.2537 0.9673 -1076.6656 855.2322)">
        <stop offset="0.0562" style="stop-color:#DE7210" />
        <stop offset="1" style="stop-color:#F6C08F" />
      </linearGradient>
      <path fill="url(#firefox-logo-88)" d="M3.411,71.171c0,0,1.554-20.192,11.661-27.582 c7.935-5.805,1.773-3.696-1.291-3.456c-3.231,0.256-4.954,2.221-4.331,1.498c0.027-0.03,0.036-0.047,0.031-0.055 C9.375,41.451,1.897,47.726,3.411,71.171z" />
      <linearGradient id="firefox-logo-89" gradientUnits="userSpaceOnUse" x1="15.8564" y1="36.4131" x2="-3.4365" y2="67.833" gradientTransform="matrix(0.9897 -0.0801 0.0949 1.1727 -3.8203 -4.9468)">
        <stop offset="0.0562" style="stop-color:#DE7210" />
        <stop offset="1" style="stop-color:#F2C06E" />
      </linearGradient>
      <path fill="url(#firefox-logo-89)" d="M2.347,55.658c0,0,5.416-17.192,16.362-17.047 c7.259,0.097,1.501-6.134-0.695-7.081c-2.291-0.981-2.839-0.943-3.374-0.469C13.838,31.771,6.636,31.497,2.347,55.658z" />
      <linearGradient id="firefox-logo-90" gradientUnits="userSpaceOnUse" x1="80.9292" y1="67.8447" x2="60.4332" y2="71.7597">
        <stop offset="0.0047" style="stop-color:#FFFAEE" />
        <stop offset="0.4668" style="stop-color:#ECC267" />
        <stop offset="0.8921" style="stop-color:#E07820" />
        <stop offset="1" style="stop-color:#DF731B" />
      </linearGradient>
      <path fill="url(#firefox-logo-90)" d="M76.185,72.486c0.823-0.807,0.249-3.903-4.924-5.78 c-4.694-1.705-12.021,2.63-14.195,3.486c0,0,8.299-1.555,11.411-1.037C72.695,69.857,74.177,74.456,76.185,72.486z" />
      <linearGradient id="firefox-logo-91" gradientUnits="userSpaceOnUse" x1="-411.2729" y1="427.6279" x2="-411.2729" y2="475.3195" gradientTransform="matrix(0.992 0.1261 -0.1261 0.992 477.0624 -332.3914)">
        <stop offset="0.0562" style="stop-color:#DE7210" />
        <stop offset="1" style="stop-color:#F2C06E" />
      </linearGradient>
    </g>
    <g id="Fire">
      <linearGradient id="firefox-logo-110" gradientUnits="userSpaceOnUse" x1="88.3306" y1="117.3682" x2="117.2648" y2="72.7407">
        <stop offset="0" style="stop-color:#DE5C01" />
        <stop offset="0.736" style="stop-color:#FEFD00" />
        <stop offset="0.9607" style="stop-color:#FFFF92" />
      </linearGradient>
      <path fill="url(#firefox-logo-110)" d="M124.199,50.76c0,0,0.771,17.288-23.244,41.304 c-2.669,2.668-17.16,16.244-16.65,20.317C84.484,113.82,122.326,106.576,124.199,50.76z" />
      <linearGradient id="firefox-logo-111" gradientUnits="userSpaceOnUse" x1="105.1567" y1="22.7378" x2="86.2112" y2="14.4171">
        <stop offset="0" style="stop-color:#F79A09" />
        <stop offset="0.736" style="stop-color:#FEFD00" />
        <stop offset="0.9607" style="stop-color:#FFFF92" />
      </linearGradient>
      <path fill="url(#firefox-logo-111)" d="M77.64,10.096c28.926,2.222,34.528,23.021,34.53,21.748 C112.243,11.624,84.726,10.089,77.64,10.096z" />
      <linearGradient id="firefox-logo-112" gradientUnits="userSpaceOnUse" x1="117.8823" y1="41.729" x2="91.3593" y2="17.106">
        <stop offset="0" style="stop-color:#DE5C01" />
        <stop offset="0.736" style="stop-color:#FEFD00" />
        <stop offset="0.9607" style="stop-color:#FFFF92" />
      </linearGradient>
      <path fill="url(#firefox-logo-112)" d="M86.449,18.003c0,0,20.053,4.099,25.709,25.354 c0.75,2.815-2.416-17.267-1.439-15.361C111.694,29.912,102.648,18.638,86.449,18.003z" />
      <linearGradient id="firefox-logo-113" gradientUnits="userSpaceOnUse" x1="1.1396" y1="145.4453" x2="-9.9659" y2="133.9595" gradientTransform="matrix(0.9996 -0.0282 0.0282 0.9996 104.7769 -104.6242)">
        <stop offset="0" style="stop-color:#F79A09" />
        <stop offset="0.736" style="stop-color:#FEFD00" />
        <stop offset="0.9607" style="stop-color:#FFFF92" />
      </linearGradient>
      <path fill="url(#firefox-logo-113)" d="M94.464,17.483c0,0,18.11,3.775,18.29,32.509 c0.127,20.338,3.141,7.635,6.131,3.064c2.578-3.948,0.816-8.76,0.754-8.748c-0.01,0.003-1.305-3.743-0.432-2.156 c0.039,0.07-1.216-1.034-1.207-1.035C118.201,41.087,117.303,20.465,94.464,17.483z" />
      <linearGradient id="firefox-logo-114" gradientUnits="userSpaceOnUse" x1="113.4365" y1="55.834" x2="119.687" y2="34.3323">
        <stop offset="0" style="stop-color:#F79A09" />
        <stop offset="0.736" style="stop-color:#FEFD00" />
        <stop offset="0.9607" style="stop-color:#FFFF92" />
      </linearGradient>
      <path fill="url(#firefox-logo-114)" d="M114.857,21.376c0,0,6.505,16.945-0.389,25.371 c-2.25,2.75-2.502,16.839,0.247,15.545c2.756-1.296,2.157,7.481,1.796,8.48c-0.008,0.019-0.01,0.028-0.006,0.031 C116.685,70.914,130.097,49.143,114.857,21.376z" />
      <linearGradient id="firefox-logo-115" gradientUnits="userSpaceOnUse" x1="-51.9663" y1="212.7881" x2="-52.1943" y2="196.4341" gradientTransform="matrix(0.9992 -0.0412 0.0412 0.9992 151.8961 -153.906)">
        <stop offset="0" style="stop-color:#F79A09" />
        <stop offset="0.736" style="stop-color:#FEFD00" />
        <stop offset="0.9607" style="stop-color:#FFFF92" />
      </linearGradient>
      <path fill="url(#firefox-logo-115)" d="M105.814,39.215c0,0,4.095,11.989-0.193,20.56l3.244,7.245 C111.244,61.176,114.273,48.817,105.814,39.215z" />
      <linearGradient id="firefox-logo-116" gradientUnits="userSpaceOnUse" x1="-172.7212" y1="332.082" x2="-161.4561" y2="309.8933" gradientTransform="matrix(0.9975 -0.0707 0.0707 0.9975 254.6004 -268.4704)">
        <stop offset="0" style="stop-color:#F79A09" />
        <stop offset="0.9607" style="stop-color:#FFFF92" />
      </linearGradient>
      <path fill="url(#firefox-logo-116)" d="M113.016,37.789c0,0,2.832,19.03-7.387,36.208 c0.158,3.973-0.539,7.569-1.496,10.532c0.445,0.586,1.041,0.987,1.827,1.057c-0.347,0.32-0.692,0.62-1.026,0.904 c-0.614,0.271-1.243,0.558-1.852,0.853c-0.13,0.303-0.261,0.597-0.389,0.879c0.68-0.477,1.438-1.056,2.24-1.731 c2.087-0.922,3.965-1.638,3.961-1.642c0,0-0.383,0.143-1.303,0.478c-0.619,0.225-1.16,0.301-1.632,0.259 C113.851,78.394,124.665,62.311,113.016,37.789z M101.109,88.379c-0.902,0.529-1.558,1.025-1.698,1.408 c-0.103,0.279,0.512,0.118,1.575-0.479C101.041,88.989,101.086,88.676,101.109,88.379z" />
      <linearGradient id="firefox-logo-117" gradientUnits="userSpaceOnUse" x1="99.2056" y1="87.7466" x2="100.7206" y2="63.1691" gradientTransform="matrix(0.9975 -0.0707 0.0707 0.9975 -10.9669 13.6507)">
        <stop offset="0" style="stop-color:#DE5C01" />
        <stop offset="0.9607" style="stop-color:#FFFF92" />
      </linearGradient>
      <path fill="url(#firefox-logo-117)" d="M100.412,58.065c0,0,8.057,22.932-17.693,44.432 c-1.519,1.269,10.452,0.726,11.5,0.25c3.086-1.402,6.733-10.757,6.303-9.637C100.095,94.229,112.479,76.574,100.412,58.065z" />
      <linearGradient id="firefox-logo-118" gradientUnits="userSpaceOnUse" x1="58.3691" y1="113.8594" x2="105.8753" y2="85.4649">
        <stop offset="0" style="stop-color:#B9120D" />
        <stop offset="0.8" style="stop-color:#FEFD07" />
        <stop offset="1" style="stop-color:#FFFFC7" />
      </linearGradient>
      <path fill="url(#firefox-logo-118)" d="M111.68,72.61c0,0-4.86,29.744-38.461,32.137 c-13.157,0.938-32.048-2.141-30.375,2.877c0.519,1.556,2.992,8.043,8.636,9.548C66.755,121.247,107.395,119.913,111.68,72.61z " />
    </g>
    <g>
      <linearGradient id="firefox-logo-119" gradientUnits="userSpaceOnUse" x1="54.2402" y1="93.5825" x2="102.9066" y2="100.176" gradientTransform="matrix(0.9951 0.0989 -0.0989 0.9951 10.3843 -6.0754)">
        <stop offset="0" style="stop-color:#DE7210" />
        <stop offset="1" style="stop-color:#F6C08F" />
      </linearGradient>
      <path fill="url(#firefox-logo-119)" d="M83.657,95.119c0,0-20.559,4.697-33.878-6.641 c-12.187-10.377-6.141-1.643-4.488,2.665c1.698,4.418-7.853,1.042-9.289,0.332C34.571,90.774,58.625,105.859,83.657,95.119z" />
      <linearGradient id="firefox-logo-120" gradientUnits="userSpaceOnUse" x1="39.0127" y1="89.8896" x2="95.5219" y2="107.6497" gradientTransform="matrix(0.9895 0.1448 -0.1448 0.9895 14.2829 -5.8352)">
        <stop offset="0" style="stop-color:#DE7210" />
        <stop offset="1" style="stop-color:#F6C08F" />
      </linearGradient>
      <path fill="url(#firefox-logo-120)" d="M70.408,106.325c0,0-24.525-4.82-32.29-21.438 c-6.635-14.197-4.879-3.779-5.178,0.962c-0.314,4.877-7.191-1.783-8.11-2.942c-0.026-0.028-0.044-0.047-0.046-0.042 C24.647,82.955,37.433,102.999,70.408,106.325z" />
      <linearGradient id="firefox-logo-121" gradientUnits="userSpaceOnUse" x1="-601.4673" y1="628.9609" x2="-574.5974" y2="680.4042" gradientTransform="matrix(0.9837 -0.1799 0.1799 0.9837 500.9515 -643.7268)">
        <stop offset="0" style="stop-color:#DE7210" />
        <stop offset="1" style="stop-color:#F6C08F" />
      </linearGradient>
      <path fill="url(#firefox-logo-121)" d="M43.617,104.176c0,0-11.714-9.073-16.995-21.514 c-4.438-1.542-10.339-5.067-10.456-5.67C18.041,86.659,27.912,97.946,43.617,104.176z" />
    </g>
  </g>
</svg>