<svg width="256" height="256" xmlns="http://www.w3.org/2000/svg" viewBox="0 0 109.40017 100.77499">
  <defs>
    <radialGradient id="ie-logo-3275" gradientUnits="userSpaceOnUse" gradientTransform="matrix(0.869,0.4949,-0.4095,0.7191,90.1259,-29.9967)" cx="157.0107" cy="169.83791" r="175.4256" >
      <stop style="stop-color:#3DC5F1" offset="0.4" />
      <stop style="stop-color:#1E71B8" offset="1" />
    </radialGradient>
    <radialGradient id="ie-logo-3277" gradientUnits="userSpaceOnUse" gradientTransform="matrix(0.7101,0.7041,-1.8774,1.8936,417.7134,-296.0714)" cx="171.77879" cy="195.98" r="78.793503" >
      <stop style="stop-color:#FFCC09" offset="0.6" />
      <stop style="stop-color:#F2ED7E;stop-opacity:0.96" offset="0.8" />
      <stop style="stop-color:#FFCC09;stop-opacity:0" offset="1" />
    </radialGradient>
    <radialGradient id="ie-logo-3279" gradientUnits="userSpaceOnUse" gradientTransform="matrix(0.7015,0.7127,-1.8844,1.8549,441.4625,-309.2913)" cx="188.8398" cy="204.3584" r="89.172897">
      <stop style="stop-color:#F2ED7E;stop-opacity:0" offset="0.5" />
      <stop style="stop-color:#FFCC09" offset="0.7" />
      <stop style="stop-color:#F2ED7E;stop-opacity:0.9" offset="0.8" />
      <stop style="stop-color:#FFCC09;stop-opacity:0" offset="1" />
    </radialGradient>
  </defs>
  <g transform="translate(15.74869,-265.30153)">
    <g transform="matrix(0.38462212,0,0,0.38462212,-30.92626,239.595)">
      <g>
        <path style="fill:url(#ie-logo-3275)" d="m 204.013,271.924 c -20.214,0 -37.787,-11.293 -46.766,-27.908 -4.052,-7.502 -6.356,-16.09 -6.356,-25.215 v -0.244 h 0.005 106.233 64.823 c 0.508,-4.504 0.795,-9.072 0.795,-13.711 0,-66.792 -54.145,-120.935 -120.936,-120.935 -66.792,0 -120.937,54.144 -120.937,120.935 0,66.791 54.145,120.936 120.937,120.936 53.076,0 98.134,-34.207 114.413,-81.766 h -65.447 c -8.977,16.615 -26.552,27.908 -46.764,27.908 z m -2.201,-133.177 c 27.136,0 49.306,21.229 50.829,47.983 h -101.66 c 1.523,-26.754 23.694,-47.983 50.831,-47.983 z" />
        <g style="opacity:0.5">
          <path d="m 204.429,273.173 c -20.213,0 -37.786,-11.293 -46.766,-27.908 -4.052,-7.502 -6.356,-16.09 -6.356,-25.215 v -0.244 h 0.005 106.232 64.823 c 0.508,-4.504 0.795,-9.072 0.795,-13.711 0,-66.792 -54.145,-120.935 -120.936,-120.935 -66.791,0 -120.934,54.143 -120.934,120.935 0,66.791 54.145,120.936 120.936,120.936 53.076,0 98.134,-34.207 114.413,-81.766 h -65.447 c -8.978,16.615 -26.553,27.908 -46.765,27.908 z m -2.201,-133.177 c 27.136,0 49.306,21.229 50.829,47.983 h -101.66 c 1.524,-26.754 23.694,-47.983 50.831,-47.983 z" style="fill:none;stroke:#ffffff;stroke-width:1.5" />
        </g>
        <path d="m 204.013,271.924 c -20.214,0 -37.787,-11.293 -46.766,-27.908 -4.052,-7.502 -6.356,-16.09 -6.356,-25.215 v -0.244 h 0.005 106.233 64.823 c 0.508,-4.504 0.795,-9.072 0.795,-13.711 0,-66.792 -54.145,-120.935 -120.936,-120.935 -66.792,0 -120.937,54.144 -120.937,120.935 0,66.791 54.145,120.936 120.937,120.936 53.076,0 98.134,-34.207 114.413,-81.766 h -65.447 c -8.977,16.615 -26.552,27.908 -46.764,27.908 z m -2.201,-133.177 c 27.136,0 49.306,21.229 50.829,47.983 h -101.66 c 1.523,-26.754 23.694,-47.983 50.831,-47.983 z" style="fill:none;stroke:#0f5ea8;stroke-width:1.5" />
      </g>
      <path d="m 139.395,309.66 c -26.71,12.176 -48.584,14.281 -59.485,3.379 -22.308,-22.309 9.694,-90.48 71.479,-152.265 61.785,-61.784 129.958,-93.787 152.265,-71.479 9.521,9.522 9.119,27.415 0.759,49.583 1.224,1.896 2.398,3.824 3.518,5.789 11.229,-29.285 11.103,-54.192 -3.663,-68.957 -22.891,-22.891 -109.786,-1.605 -176.507,65.118 -66.723,66.723 -87.764,153.861 -65.12,176.506 17.253,17.254 48.578,14.289 84.533,-3.396 -2.651,-1.334 -5.243,-2.764 -7.779,-4.278 z" style="fill:#ffcc09" />
      <path style="fill:url(#ie-logo-3279)" d="m 139.395,309.66 c -26.71,12.176 -48.584,14.281 -59.485,3.379 -22.308,-22.309 9.694,-90.48 71.479,-152.265 61.785,-61.784 129.958,-93.787 152.265,-71.479 9.521,9.522 9.119,27.415 0.759,49.583 1.224,1.896 2.398,3.824 3.518,5.789 11.229,-29.285 11.103,-54.192 -3.663,-68.957 -22.891,-22.891 -109.786,-1.605 -176.507,65.118 -66.723,66.723 -87.764,153.861 -65.12,176.506 17.253,17.254 48.578,14.289 84.533,-3.396 -2.651,-1.334 -5.243,-2.764 -7.779,-4.278 z"/>
    </g>
  </g>
</svg>